<?xml version="1.0" encoding="utf-8"?>
<!-- Generator: Adobe Illustrator 19.2.1, SVG Export Plug-In . SVG Version: 6.00 Build 0)  -->
<svg version="1.1" id="Layer_1" xmlns="http://www.w3.org/2000/svg" xmlns:xlink="http://www.w3.org/1999/xlink" x="0px" y="0px"
	 viewBox="0 0 1024 1024" style="enable-background:new 0 0 1024 1024;" xml:space="preserve">
<style type="text/css">
	.st0{fill:#202020;}
</style>
<g>
	<path fill="#535353" class="st0" d="M512.4,31.4c141.3,0,282.9,0,424.2,0c37.2,0,59.9,22.7,59.9,60.1c0,280.4,0,560.6,0,840.9
		c0,37.8-22.5,60.3-60.5,60.3c-282.5,0-565.1,0-847.6,0c-38.3,0-60.8-22.5-60.8-61c0-279.6,0-559.4,0-839
		c0-39.1,22.3-61.2,61.6-61.2C230.3,31.4,371.2,31.4,512.4,31.4z M512,965.9c141.1,0,282.3,0,423.4,0c23.5,0,34.3-10.9,34.3-34.3
		c0-279.8,0-559.4,0-839.2c0-23.5-10.9-34.3-34.3-34.3c-282.3,0-564.6,0-846.8,0c-23.5,0-34.3,10.9-34.3,34.3
		c0,279.8,0,559.4,0,839.2c0,23.5,10.9,34.3,34.3,34.3C229.7,965.9,370.9,965.9,512,965.9z"/>
	<path fill="#535353" class="st0" d="M223.4,137.2c27.3,9.2,53.2,17.5,79,26.3c27.1,9.2,54,18.9,81.1,27.7c7.8,2.5,10.9,5.7,10.9,14.3
		c0.4,150.9,1.1,301.9,1.7,452.8c0,3.4,0,6.9,0,12.8c79.5-41.8,157.5-82.8,237.5-124.9c-23.8-10.9-45.8-20.8-67.5-30.5
		c-5.5-2.5-10.7-6.1-16.4-7.4c-23.5-5.7-33.9-22.3-42.9-43.3c-17.5-41.8-37.6-82.6-56.6-123.8c-1.3-2.9-2.5-5.7-4.4-10.3
		c18.9,5.5,36,10.7,53.2,15.8c41,12.6,81.8,25.2,122.8,37.8c64.1,19.6,128,39.3,192.1,58.7c5.5,1.7,7.4,4,7.2,9.9
		c-0.2,56.3-0.4,112.5,0,168.8c0,7.2-3.6,10.1-8.8,13c-40.6,24-81.4,48.3-122.1,72.5c-52.8,31.5-105.9,63.1-158.7,94.6
		c-43.1,25.7-86,51.5-129.1,77.1c-5,2.9-9,6.3-16,1.3c-51.9-37-104.1-73.6-156.6-110.1c-5.3-3.8-7.2-7.6-7.2-14.1
		c0.2-203.1,0.2-406.1,0.2-609.2C223,144.3,223.2,141.4,223.4,137.2z"/>
</g>
</svg>
